# xmcd CD database file
#
# Track frame offsets:
#       150
#       17147
#       40022
#
# Disc length: 807 seconds
#
# Revision: 0
# Processed by: cddbd v1.5.1PL2 Copyright (c) Steve Scherf et al.
# Submitted via: jack 3.1.1
#
DISCID=19032503
DTITLE=Central Christian Church - A Taste Of Exaltation: Worship Sampler
DYEAR=2002
DGENRE=Rock
TTITLE0=For The Lord Is Good
TTITLE1=Open The Eyes Of My Heart
TTITLE2=Deep Is Our Hunger
EXTD=
EXTT0=
EXTT1=
EXTT2=
PLAYORDER=
